<svg width="808" height="245" viewBox="0 0 808 245" fill="none" xmlns="http://www.w3.org/2000/svg">
<rect width="808" height="245" rx="6" fill="#0D1117"/>
<path d="M0 6.00001C0 2.6863 2.68629 0 6 0H117C200.053 122 163.511 172 255 245H6C2.68629 245 0 242.314 0 239V6.00001Z" fill="#2972E4" fill-opacity="0.56"/>
<path d="M0 6.00001C0 2.6863 2.68629 0 6 0H86C159.608 122 144.916 172 226 245H6C2.68629 245 0 242.314 0 239V6.00001Z" fill="#428DFF" fill-opacity="0.56"/>
<path d="M0 6.00001C0 2.6863 2.68629 0 6 0H65.5C129.5 122 126 172 196.5 245H6C2.68629 245 0 242.314 0 239V6.00001Z" fill="#4184E5" fill-opacity="0.56"/>
<path d="M808 239C808 242.314 805.314 245 802 245L691 245C607.947 123 644.489 73 553 0L802 0C805.314 0 808 2.68629 808 6V239Z" fill="#2972E4" fill-opacity="0.56"/>
<path d="M808 239C808 242.314 805.314 245 802 245H722C648.392 123 663.084 73 582 0L802 0C805.314 0 808 2.68629 808 6V239Z" fill="#428DFF" fill-opacity="0.56"/>
<path d="M808 239C808 242.314 805.314 245 802 245H742.5C678.5 123 682 73 611.5 0L802 0C805.314 0 808 2.68629 808 6V239Z" fill="#4184E5" fill-opacity="0.56"/>
<path d="M437.3 44H367.7C362.895 44 359 47.8951 359 52.7V104.9C359 109.705 362.895 113.6 367.7 113.6H437.3C442.105 113.6 446 109.705 446 104.9V52.7C446 47.8951 442.105 44 437.3 44Z" stroke="#3F8AFF" stroke-width="8" stroke-linecap="round" stroke-linejoin="round"/>
<path d="M393.8 44V61.4" stroke="#3F8AFF" stroke-width="8" stroke-linecap="round" stroke-linejoin="round"/>
<path d="M359 61.4H446" stroke="#3F8AFF" stroke-width="8" stroke-linecap="round" stroke-linejoin="round"/>
<path d="M376.4 44V61.4" stroke="#3F8AFF" stroke-width="8" stroke-linecap="round" stroke-linejoin="round"/>
<path d="M358.536 167.432C349.128 167.432 341.64 160.328 341.64 150.68C341.64 141.032 349.128 133.928 358.536 133.928C367.944 133.928 375.432 141.032 375.432 150.68C375.432 160.328 367.944 167.432 358.536 167.432ZM358.536 161.432C364.488 161.432 368.52 156.776 368.52 150.68C368.52 144.584 364.488 139.928 358.536 139.928C352.584 139.928 348.552 144.584 348.552 150.68C348.552 156.776 352.584 161.432 358.536 161.432ZM390.308 167.432C384.068 167.432 380.036 164.456 378.068 160.568L383.54 157.4C384.98 159.752 386.852 161.48 390.164 161.48C392.948 161.48 394.724 160.088 394.724 158.168C394.724 155.864 392.9 155.048 389.828 153.704L388.148 152.984C383.3 150.92 380.084 148.328 380.084 142.856C380.084 137.816 383.924 133.976 389.924 133.976C394.196 133.976 397.268 135.464 399.476 139.352L394.244 142.712C393.092 140.648 391.844 139.832 389.924 139.832C387.956 139.832 386.708 141.08 386.708 142.712C386.708 144.728 387.956 145.544 390.836 146.792L392.516 147.512C398.228 149.96 401.444 152.456 401.444 158.072C401.444 164.12 396.692 167.432 390.308 167.432ZM423.289 167.432C412.633 167.432 405.577 160.328 405.577 150.68C405.577 141.032 412.393 133.976 422.233 133.976C427.561 133.976 431.401 135.416 434.089 138.488L429.529 143C427.897 141.32 426.025 140.024 422.233 140.024C416.329 140.024 412.489 144.584 412.489 150.68C412.489 156.776 416.425 161.432 423.289 161.432C425.401 161.432 427.993 161.048 429.673 160.232V155.432H421.801V149.528H435.817V163.64C433.945 165.176 429.241 167.432 423.289 167.432ZM442.166 167V134.36H448.886V161.096H463.67V167H442.166Z" fill="white"/>
<path d="M309.75 189L313.039 181.454H313.171L316.592 189H314.975L314.623 188.153H311.587L311.235 189H309.75ZM312.104 186.866H314.073L313.534 185.568C313.314 185.04 313.083 184.226 313.083 184.226C313.083 184.226 312.863 185.04 312.643 185.568L312.104 186.866ZM322.76 189.099C322.045 189.099 321.55 188.813 321.286 188.318L321.319 189H319.834V181.058H321.319V184.974C321.627 184.512 322.078 184.215 322.793 184.215C323.937 184.215 324.883 185.205 324.883 186.646C324.883 188.087 323.904 189.099 322.76 189.099ZM322.331 187.801C322.958 187.801 323.354 187.383 323.354 186.646C323.354 185.953 322.958 185.524 322.331 185.524C321.693 185.524 321.275 185.953 321.275 186.646C321.275 187.383 321.693 187.801 322.331 187.801ZM325.926 189V181.058H327.4V189H325.926ZM331.361 186.217C331.339 185.678 331.075 185.436 330.58 185.436C330.019 185.436 329.722 185.678 329.513 185.865L328.688 184.985C329.128 184.556 329.623 184.215 330.723 184.215C331.922 184.215 332.835 184.864 332.835 186.338V189H331.361L331.394 188.351C331.042 188.89 330.635 189.099 330.008 189.099C329.15 189.099 328.358 188.714 328.358 187.625C328.358 186.624 329.117 186.217 330.272 186.217H331.361ZM331.361 187.097H330.349C329.975 187.097 329.81 187.262 329.81 187.526C329.81 187.79 330.03 187.944 330.448 187.944C331.053 187.944 331.361 187.68 331.361 187.284V187.097ZM333.641 189V188.879L335.676 185.513H333.894V184.314H337.942V184.435L335.863 187.801H337.766V189H333.641ZM339.64 183.533C339.134 183.533 338.694 183.148 338.694 182.598C338.694 182.059 339.134 181.674 339.64 181.674C340.146 181.674 340.575 182.059 340.575 182.598C340.575 183.148 340.146 183.533 339.64 183.533ZM338.892 189V184.314H340.377V189H338.892ZM341.598 189V184.314H343.083L343.05 185.084C343.336 184.523 343.886 184.215 344.535 184.215C345.558 184.215 346.295 184.963 346.295 186.294V189H344.81V186.393C344.81 185.865 344.557 185.568 344.029 185.568C343.435 185.568 343.083 185.898 343.083 186.492V189H341.598ZM350.128 184.303H351.932V185.359H351.239C351.349 185.524 351.404 185.722 351.404 185.931C351.404 186.932 350.634 187.669 349.435 187.669C349.061 187.669 348.742 187.614 348.478 187.482C348.401 187.548 348.357 187.647 348.357 187.768C348.357 187.988 348.5 188.131 348.841 188.142L349.996 188.197C351.272 188.263 351.998 188.791 351.998 189.704C351.998 190.694 351.272 191.442 349.413 191.442C347.73 191.442 346.894 190.793 346.894 189.902C346.894 189.396 347.224 189.066 347.752 188.868C347.367 188.659 347.191 188.351 347.191 187.922C347.191 187.504 347.422 187.185 347.84 186.998C347.576 186.712 347.422 186.338 347.422 185.931C347.422 184.93 348.236 184.215 349.435 184.215C349.688 184.215 349.919 184.248 350.128 184.303ZM349.413 186.591C349.864 186.591 350.106 186.327 350.106 185.931C350.106 185.557 349.864 185.304 349.413 185.304C348.962 185.304 348.72 185.557 348.72 185.931C348.72 186.327 348.962 186.591 349.413 186.591ZM348.467 189.352C348.379 189.451 348.335 189.572 348.335 189.715C348.335 190.089 348.599 190.331 349.413 190.331C350.282 190.331 350.48 190.1 350.48 189.814C350.48 189.55 350.304 189.462 349.699 189.429L348.467 189.352ZM352.77 189V181.058H354.244V189H352.77ZM355.598 191.332L356.819 188.56L354.96 184.314H356.599L357.27 186.118C357.435 186.558 357.6 187.328 357.6 187.328C357.6 187.328 357.743 186.547 357.919 186.118L358.645 184.314H360.152L357.083 191.332H355.598ZM363.804 189V185.546H363.023V184.314H363.804V182.741C363.804 181.531 364.376 180.915 365.531 180.915C366.191 180.915 366.631 181.113 366.972 181.509L366.169 182.499C366.059 182.367 365.927 182.246 365.696 182.246C365.454 182.246 365.289 182.378 365.289 182.719V184.314H366.554V185.546H365.289V189H363.804ZM370.119 186.217C370.097 185.678 369.833 185.436 369.338 185.436C368.777 185.436 368.48 185.678 368.271 185.865L367.446 184.985C367.886 184.556 368.381 184.215 369.481 184.215C370.68 184.215 371.593 184.864 371.593 186.338V189H370.119L370.152 188.351C369.8 188.89 369.393 189.099 368.766 189.099C367.908 189.099 367.116 188.714 367.116 187.625C367.116 186.624 367.875 186.217 369.03 186.217H370.119ZM370.119 187.097H369.107C368.733 187.097 368.568 187.262 368.568 187.526C368.568 187.79 368.788 187.944 369.206 187.944C369.811 187.944 370.119 187.68 370.119 187.284V187.097ZM374.522 189.099C373.433 189.099 372.795 188.692 372.388 188.208L373.257 187.438C373.576 187.746 373.983 187.933 374.423 187.933C374.907 187.933 375.061 187.845 375.061 187.647C375.061 187.394 374.764 187.394 374.005 187.196C373.367 187.031 372.652 186.679 372.652 185.7C372.652 184.644 373.466 184.215 374.467 184.215C375.237 184.215 375.787 184.468 376.172 184.864L375.38 185.711C375.16 185.524 374.83 185.359 374.478 185.359C374.137 185.359 373.972 185.447 373.972 185.634C373.972 185.898 374.269 185.931 374.907 186.074C375.589 186.228 376.447 186.547 376.447 187.537C376.447 188.395 375.996 189.099 374.522 189.099ZM379.276 189.121C378.33 189.121 377.648 188.648 377.648 187.24V185.546H376.955V184.314H377.648V181.872H379.122V184.314H380.321V185.546H379.122V187.284C379.122 187.757 379.276 187.856 379.507 187.856C379.749 187.856 379.925 187.724 380.024 187.658L380.585 188.692C380.354 188.879 379.958 189.121 379.276 189.121ZM381.44 190.265L381.858 188.945C381.528 188.791 381.308 188.505 381.308 188.109C381.308 187.592 381.737 187.207 382.243 187.207C382.738 187.207 383.167 187.592 383.167 188.131C383.167 188.494 383.002 188.769 382.837 189.066L382.188 190.265H381.44ZM387.971 187.108C388.114 187.592 388.51 187.867 389.181 187.867C389.72 187.867 390.127 187.658 390.358 187.493L391.205 188.406C390.754 188.802 390.182 189.099 389.203 189.099C387.531 189.099 386.453 188.087 386.453 186.646C386.453 185.227 387.586 184.215 389.038 184.215C390.721 184.215 391.634 185.469 391.524 187.108H387.971ZM387.949 186.25H390.028C389.962 185.733 389.632 185.425 389.049 185.425C388.466 185.425 388.07 185.689 387.949 186.25ZM400.053 183.533C399.547 183.533 399.107 183.148 399.107 182.598C399.107 182.059 399.547 181.674 400.053 181.674C400.559 181.674 400.988 182.059 400.988 182.598C400.988 183.148 400.559 183.533 400.053 183.533ZM392.969 189V185.546H392.188V184.314H392.969V182.961C392.969 181.751 393.552 181.135 394.641 181.135C395.169 181.135 395.532 181.289 395.862 181.575L395.246 182.642C395.169 182.554 395.037 182.466 394.839 182.466C394.608 182.466 394.454 182.609 394.454 182.939V184.314H396.137V182.741C396.137 181.531 396.72 180.915 397.864 180.915C398.447 180.915 398.777 181.069 399.096 181.344L398.403 182.389C398.315 182.312 398.183 182.246 398.007 182.246C397.776 182.246 397.622 182.389 397.622 182.719V184.314H400.79V189H399.305V185.546H397.622V189H396.137V185.546H394.454V189H392.969ZM404.41 189.099C402.947 189.099 401.847 188.087 401.847 186.646C401.847 185.227 402.947 184.215 404.41 184.215C405.345 184.215 405.906 184.556 406.379 185.15L405.323 186.008C405.147 185.722 404.784 185.513 404.41 185.513C403.739 185.513 403.365 185.986 403.365 186.646C403.365 187.328 403.739 187.812 404.41 187.812C404.883 187.812 405.136 187.592 405.356 187.372L406.357 188.252C405.895 188.769 405.345 189.099 404.41 189.099ZM408.057 183.533C407.551 183.533 407.111 183.148 407.111 182.598C407.111 182.059 407.551 181.674 408.057 181.674C408.563 181.674 408.992 182.059 408.992 182.598C408.992 183.148 408.563 183.533 408.057 183.533ZM407.309 189V184.314H408.794V189H407.309ZM411.368 187.108C411.511 187.592 411.907 187.867 412.578 187.867C413.117 187.867 413.524 187.658 413.755 187.493L414.602 188.406C414.151 188.802 413.579 189.099 412.6 189.099C410.928 189.099 409.85 188.087 409.85 186.646C409.85 185.227 410.983 184.215 412.435 184.215C414.118 184.215 415.031 185.469 414.921 187.108H411.368ZM411.346 186.25H413.425C413.359 185.733 413.029 185.425 412.446 185.425C411.863 185.425 411.467 185.689 411.346 186.25ZM415.934 189V184.314H417.419L417.386 185.084C417.672 184.523 418.222 184.215 418.871 184.215C419.894 184.215 420.631 184.963 420.631 186.294V189H419.146V186.393C419.146 185.865 418.893 185.568 418.365 185.568C417.771 185.568 417.419 185.898 417.419 186.492V189H415.934ZM423.792 189.121C422.846 189.121 422.164 188.648 422.164 187.24V185.546H421.471V184.314H422.164V181.872H423.638V184.314H424.837V185.546H423.638V187.284C423.638 187.757 423.792 187.856 424.023 187.856C424.265 187.856 424.441 187.724 424.54 187.658L425.101 188.692C424.87 188.879 424.474 189.121 423.792 189.121ZM425.956 190.265L426.374 188.945C426.044 188.791 425.824 188.505 425.824 188.109C425.824 187.592 426.253 187.207 426.759 187.207C427.254 187.207 427.683 187.592 427.683 188.131C427.683 188.494 427.518 188.769 427.353 189.066L426.704 190.265H425.956ZM431.332 189V181.52H436.282V182.873H432.872V185.249H435.875V186.569H432.872V187.647H436.436V189H431.332ZM439.419 189.099C438.275 189.099 437.296 188.087 437.296 186.646C437.296 185.205 438.264 184.215 439.397 184.215C440.145 184.215 440.563 184.512 440.86 184.974V181.058H442.345V189H440.86L440.893 188.318C440.629 188.813 440.134 189.099 439.419 189.099ZM439.848 187.801C440.486 187.801 440.904 187.383 440.904 186.646C440.904 185.953 440.486 185.524 439.848 185.524C439.221 185.524 438.825 185.953 438.825 186.646C438.825 187.383 439.221 187.801 439.848 187.801ZM444.312 183.533C443.806 183.533 443.366 183.148 443.366 182.598C443.366 182.059 443.806 181.674 444.312 181.674C444.818 181.674 445.247 182.059 445.247 182.598C445.247 183.148 444.818 183.533 444.312 183.533ZM443.564 189V184.314H445.049V189H443.564ZM448.349 189.121C447.403 189.121 446.721 188.648 446.721 187.24V185.546H446.028V184.314H446.721V181.872H448.195V184.314H449.394V185.546H448.195V187.284C448.195 187.757 448.349 187.856 448.58 187.856C448.822 187.856 448.998 187.724 449.097 187.658L449.658 188.692C449.427 188.879 449.031 189.121 448.349 189.121ZM453.338 186.217C453.316 185.678 453.052 185.436 452.557 185.436C451.996 185.436 451.699 185.678 451.49 185.865L450.665 184.985C451.105 184.556 451.6 184.215 452.7 184.215C453.899 184.215 454.812 184.864 454.812 186.338V189H453.338L453.371 188.351C453.019 188.89 452.612 189.099 451.985 189.099C451.127 189.099 450.335 188.714 450.335 187.625C450.335 186.624 451.094 186.217 452.249 186.217H453.338ZM453.338 187.097H452.326C451.952 187.097 451.787 187.262 451.787 187.526C451.787 187.79 452.007 187.944 452.425 187.944C453.03 187.944 453.338 187.68 453.338 187.284V187.097ZM458.874 189.099C458.159 189.099 457.664 188.813 457.4 188.318L457.433 189H455.948V181.058H457.433V184.974C457.741 184.512 458.192 184.215 458.907 184.215C460.051 184.215 460.997 185.205 460.997 186.646C460.997 188.087 460.018 189.099 458.874 189.099ZM458.445 187.801C459.072 187.801 459.468 187.383 459.468 186.646C459.468 185.953 459.072 185.524 458.445 185.524C457.807 185.524 457.389 185.953 457.389 186.646C457.389 187.383 457.807 187.801 458.445 187.801ZM462.04 189V181.058H463.514V189H462.04ZM466.067 187.108C466.21 187.592 466.606 187.867 467.277 187.867C467.816 187.867 468.223 187.658 468.454 187.493L469.301 188.406C468.85 188.802 468.278 189.099 467.299 189.099C465.627 189.099 464.549 188.087 464.549 186.646C464.549 185.227 465.682 184.215 467.134 184.215C468.817 184.215 469.73 185.469 469.62 187.108H466.067ZM466.045 186.25H468.124C468.058 185.733 467.728 185.425 467.145 185.425C466.562 185.425 466.166 185.689 466.045 186.25ZM470.864 189V181.52H472.404V189H470.864ZM473.791 189V184.314H475.276L475.243 185.04C475.573 184.468 476.013 184.215 476.574 184.215C477.179 184.215 477.608 184.468 477.894 185.018C478.279 184.534 478.796 184.215 479.489 184.215C480.666 184.215 481.348 184.996 481.348 186.283V189H479.874V186.415C479.874 185.865 479.698 185.568 479.137 185.568C478.565 185.568 478.312 185.854 478.312 186.492V189H476.838V186.415C476.838 185.865 476.673 185.568 476.112 185.568C475.54 185.568 475.276 185.854 475.276 186.492V189H473.791ZM485.243 186.217C485.221 185.678 484.957 185.436 484.462 185.436C483.901 185.436 483.604 185.678 483.395 185.865L482.57 184.985C483.01 184.556 483.505 184.215 484.605 184.215C485.804 184.215 486.717 184.864 486.717 186.338V189H485.243L485.276 188.351C484.924 188.89 484.517 189.099 483.89 189.099C483.032 189.099 482.24 188.714 482.24 187.625C482.24 186.624 482.999 186.217 484.154 186.217H485.243ZM485.243 187.097H484.231C483.857 187.097 483.692 187.262 483.692 187.526C483.692 187.79 483.912 187.944 484.33 187.944C484.935 187.944 485.243 187.68 485.243 187.284V187.097ZM490.658 184.303H492.462V185.359H491.769C491.879 185.524 491.934 185.722 491.934 185.931C491.934 186.932 491.164 187.669 489.965 187.669C489.591 187.669 489.272 187.614 489.008 187.482C488.931 187.548 488.887 187.647 488.887 187.768C488.887 187.988 489.03 188.131 489.371 188.142L490.526 188.197C491.802 188.263 492.528 188.791 492.528 189.704C492.528 190.694 491.802 191.442 489.943 191.442C488.26 191.442 487.424 190.793 487.424 189.902C487.424 189.396 487.754 189.066 488.282 188.868C487.897 188.659 487.721 188.351 487.721 187.922C487.721 187.504 487.952 187.185 488.37 186.998C488.106 186.712 487.952 186.338 487.952 185.931C487.952 184.93 488.766 184.215 489.965 184.215C490.218 184.215 490.449 184.248 490.658 184.303ZM489.943 186.591C490.394 186.591 490.636 186.327 490.636 185.931C490.636 185.557 490.394 185.304 489.943 185.304C489.492 185.304 489.25 185.557 489.25 185.931C489.25 186.327 489.492 186.591 489.943 186.591ZM488.997 189.352C488.909 189.451 488.865 189.572 488.865 189.715C488.865 190.089 489.129 190.331 489.943 190.331C490.812 190.331 491.01 190.1 491.01 189.814C491.01 189.55 490.834 189.462 490.229 189.429L488.997 189.352ZM494.512 187.108C494.655 187.592 495.051 187.867 495.722 187.867C496.261 187.867 496.668 187.658 496.899 187.493L497.746 188.406C497.295 188.802 496.723 189.099 495.744 189.099C494.072 189.099 492.994 188.087 492.994 186.646C492.994 185.227 494.127 184.215 495.579 184.215C497.262 184.215 498.175 185.469 498.065 187.108H494.512ZM494.49 186.25H496.569C496.503 185.733 496.173 185.425 495.59 185.425C495.007 185.425 494.611 185.689 494.49 186.25ZM338.065 195.303H339.869V196.359H339.176C339.286 196.524 339.341 196.722 339.341 196.931C339.341 197.932 338.571 198.669 337.372 198.669C336.998 198.669 336.679 198.614 336.415 198.482C336.338 198.548 336.294 198.647 336.294 198.768C336.294 198.988 336.437 199.131 336.778 199.142L337.933 199.197C339.209 199.263 339.935 199.791 339.935 200.704C339.935 201.694 339.209 202.442 337.35 202.442C335.667 202.442 334.831 201.793 334.831 200.902C334.831 200.396 335.161 200.066 335.689 199.868C335.304 199.659 335.128 199.351 335.128 198.922C335.128 198.504 335.359 198.185 335.777 197.998C335.513 197.712 335.359 197.338 335.359 196.931C335.359 195.93 336.173 195.215 337.372 195.215C337.625 195.215 337.856 195.248 338.065 195.303ZM337.35 197.591C337.801 197.591 338.043 197.327 338.043 196.931C338.043 196.557 337.801 196.304 337.35 196.304C336.899 196.304 336.657 196.557 336.657 196.931C336.657 197.327 336.899 197.591 337.35 197.591ZM336.404 200.352C336.316 200.451 336.272 200.572 336.272 200.715C336.272 201.089 336.536 201.331 337.35 201.331C338.219 201.331 338.417 201.1 338.417 200.814C338.417 200.55 338.241 200.462 337.636 200.429L336.404 200.352ZM340.781 200V195.314H342.266L342.244 196.161C342.585 195.391 343.135 195.215 343.619 195.215C343.927 195.215 344.158 195.303 344.345 195.402L343.872 196.755C343.685 196.667 343.509 196.612 343.3 196.612C342.629 196.612 342.266 196.92 342.266 197.921V200H340.781ZM347.635 197.217C347.613 196.678 347.349 196.436 346.854 196.436C346.293 196.436 345.996 196.678 345.787 196.865L344.962 195.985C345.402 195.556 345.897 195.215 346.997 195.215C348.196 195.215 349.109 195.864 349.109 197.338V200H347.635L347.668 199.351C347.316 199.89 346.909 200.099 346.282 200.099C345.424 200.099 344.632 199.714 344.632 198.625C344.632 197.624 345.391 197.217 346.546 197.217H347.635ZM347.635 198.097H346.623C346.249 198.097 346.084 198.262 346.084 198.526C346.084 198.79 346.304 198.944 346.722 198.944C347.327 198.944 347.635 198.68 347.635 198.284V198.097ZM350.245 202.332V195.314H351.73L351.697 196.04C351.983 195.534 352.478 195.215 353.204 195.215C354.337 195.215 355.294 196.205 355.294 197.646C355.294 199.087 354.315 200.099 353.171 200.099C352.456 200.099 351.972 199.802 351.73 199.373V202.332H350.245ZM352.742 198.801C353.369 198.801 353.765 198.383 353.765 197.646C353.765 196.953 353.369 196.524 352.742 196.524C352.104 196.524 351.686 196.953 351.686 197.646C351.686 198.383 352.104 198.801 352.742 198.801ZM356.304 200V192.058H357.789V196.051C358.075 195.512 358.592 195.215 359.241 195.215C360.264 195.215 361.001 195.963 361.001 197.294V200H359.516V197.393C359.516 196.865 359.263 196.568 358.735 196.568C358.141 196.568 357.789 196.898 357.789 197.492V200H356.304ZM362.94 194.533C362.434 194.533 361.994 194.148 361.994 193.598C361.994 193.059 362.434 192.674 362.94 192.674C363.446 192.674 363.875 193.059 363.875 193.598C363.875 194.148 363.446 194.533 362.94 194.533ZM362.192 200V195.314H363.677V200H362.192ZM367.296 200.099C365.833 200.099 364.733 199.087 364.733 197.646C364.733 196.227 365.833 195.215 367.296 195.215C368.231 195.215 368.792 195.556 369.265 196.15L368.209 197.008C368.033 196.722 367.67 196.513 367.296 196.513C366.625 196.513 366.251 196.986 366.251 197.646C366.251 198.328 366.625 198.812 367.296 198.812C367.769 198.812 368.022 198.592 368.242 198.372L369.243 199.252C368.781 199.769 368.231 200.099 367.296 200.099ZM372.901 197.217C372.879 196.678 372.615 196.436 372.12 196.436C371.559 196.436 371.262 196.678 371.053 196.865L370.228 195.985C370.668 195.556 371.163 195.215 372.263 195.215C373.462 195.215 374.375 195.864 374.375 197.338V200H372.901L372.934 199.351C372.582 199.89 372.175 200.099 371.548 200.099C370.69 200.099 369.898 199.714 369.898 198.625C369.898 197.624 370.657 197.217 371.812 197.217H372.901ZM372.901 198.097H371.889C371.515 198.097 371.35 198.262 371.35 198.526C371.35 198.79 371.57 198.944 371.988 198.944C372.593 198.944 372.901 198.68 372.901 198.284V198.097ZM375.544 200V192.058H377.018V200H375.544ZM380.679 200V192.058H382.153V200H380.679ZM384.156 194.533C383.65 194.533 383.21 194.148 383.21 193.598C383.21 193.059 383.65 192.674 384.156 192.674C384.662 192.674 385.091 193.059 385.091 193.598C385.091 194.148 384.662 194.533 384.156 194.533ZM383.408 200V195.314H384.893V200H383.408ZM389.039 200.099C388.324 200.099 387.829 199.813 387.565 199.318L387.598 200H386.113V192.058H387.598V195.974C387.906 195.512 388.357 195.215 389.072 195.215C390.216 195.215 391.162 196.205 391.162 197.646C391.162 199.087 390.183 200.099 389.039 200.099ZM388.61 198.801C389.237 198.801 389.633 198.383 389.633 197.646C389.633 196.953 389.237 196.524 388.61 196.524C387.972 196.524 387.554 196.953 387.554 197.646C387.554 198.383 387.972 198.801 388.61 198.801ZM392.172 200V195.314H393.657L393.635 196.161C393.976 195.391 394.526 195.215 395.01 195.215C395.318 195.215 395.549 195.303 395.736 195.402L395.263 196.755C395.076 196.667 394.9 196.612 394.691 196.612C394.02 196.612 393.657 196.92 393.657 197.921V200H392.172ZM399.026 197.217C399.004 196.678 398.74 196.436 398.245 196.436C397.684 196.436 397.387 196.678 397.178 196.865L396.353 195.985C396.793 195.556 397.288 195.215 398.388 195.215C399.587 195.215 400.5 195.864 400.5 197.338V200H399.026L399.059 199.351C398.707 199.89 398.3 200.099 397.673 200.099C396.815 200.099 396.023 199.714 396.023 198.625C396.023 197.624 396.782 197.217 397.937 197.217H399.026ZM399.026 198.097H398.014C397.64 198.097 397.475 198.262 397.475 198.526C397.475 198.79 397.695 198.944 398.113 198.944C398.718 198.944 399.026 198.68 399.026 198.284V198.097ZM401.636 200V195.314H403.121L403.099 196.161C403.44 195.391 403.99 195.215 404.474 195.215C404.782 195.215 405.013 195.303 405.2 195.402L404.727 196.755C404.54 196.667 404.364 196.612 404.155 196.612C403.484 196.612 403.121 196.92 403.121 197.921V200H401.636ZM406.205 202.332L407.426 199.56L405.567 195.314H407.206L407.877 197.118C408.042 197.558 408.207 198.328 408.207 198.328C408.207 198.328 408.35 197.547 408.526 197.118L409.252 195.314H410.759L407.69 202.332H406.205ZM414.41 200V196.546H413.629V195.314H414.41V193.741C414.41 192.531 414.982 191.915 416.137 191.915C416.797 191.915 417.237 192.113 417.578 192.509L416.775 193.499C416.665 193.367 416.533 193.246 416.302 193.246C416.06 193.246 415.895 193.378 415.895 193.719V195.314H417.16V196.546H415.895V200H414.41ZM420.384 200.099C418.932 200.099 417.799 199.087 417.799 197.668C417.799 196.238 418.932 195.215 420.384 195.215C421.836 195.215 422.958 196.238 422.958 197.668C422.958 199.087 421.836 200.099 420.384 200.099ZM420.384 198.845C421.044 198.845 421.44 198.361 421.44 197.668C421.44 196.964 421.044 196.491 420.384 196.491C419.724 196.491 419.317 196.964 419.317 197.668C419.317 198.361 419.724 198.845 420.384 198.845ZM423.958 200V195.314H425.443L425.421 196.161C425.762 195.391 426.312 195.215 426.796 195.215C427.104 195.215 427.335 195.303 427.522 195.402L427.049 196.755C426.862 196.667 426.686 196.612 426.477 196.612C425.806 196.612 425.443 196.92 425.443 197.921V200H423.958ZM434.863 197.668L436.414 200H434.632L433.4 198.108C433.257 198.13 433.103 198.141 432.96 198.141H432.432V200H430.892V192.52H432.96C435.05 192.52 436.304 193.521 436.304 195.347C436.304 196.513 435.787 197.25 434.863 197.668ZM432.432 196.799H432.916C434.17 196.799 434.72 196.403 434.72 195.347C434.72 194.291 434.148 193.873 432.916 193.873H432.432V196.799ZM441.267 200.099C439.111 200.099 437.395 198.471 437.395 196.26C437.395 194.049 439.111 192.421 441.267 192.421C443.423 192.421 445.139 194.049 445.139 196.26C445.139 198.471 443.423 200.099 441.267 200.099ZM441.267 198.724C442.631 198.724 443.555 197.657 443.555 196.26C443.555 194.863 442.631 193.796 441.267 193.796C439.903 193.796 438.979 194.863 438.979 196.26C438.979 197.657 439.903 198.724 441.267 198.724ZM446.446 200V192.52H449.339C450.736 192.52 451.517 193.4 451.517 194.456C451.517 195.149 451.11 195.622 450.461 195.831C451.484 196.073 451.979 196.755 451.979 197.69C451.979 199.021 451.033 200 449.471 200H446.446ZM447.986 195.281H449.174C449.669 195.281 449.999 195.006 449.999 194.577C449.999 194.148 449.724 193.873 449.251 193.873H447.986V195.281ZM447.986 198.647H449.405C450.032 198.647 450.428 198.229 450.428 197.613C450.428 197.008 450.021 196.59 449.317 196.59H447.986V198.647ZM453.16 200V192.52H454.7V198.647H458.088V200H453.16ZM462.505 200.099C460.349 200.099 458.633 198.471 458.633 196.26C458.633 194.049 460.349 192.421 462.505 192.421C464.661 192.421 466.377 194.049 466.377 196.26C466.377 198.471 464.661 200.099 462.505 200.099ZM462.505 198.724C463.869 198.724 464.793 197.657 464.793 196.26C464.793 194.863 463.869 193.796 462.505 193.796C461.141 193.796 460.217 194.863 460.217 196.26C460.217 197.657 461.141 198.724 462.505 198.724ZM466.372 200L468.814 195.886L466.779 192.52H468.528L469.287 193.807C469.507 194.181 469.782 194.83 469.782 194.83C469.782 194.83 469.991 194.192 470.211 193.807L470.937 192.52H472.576L470.574 195.897L473.06 200H471.3L470.123 198.009C469.892 197.624 469.606 196.953 469.606 196.953C469.606 196.953 469.375 197.613 469.144 198.009L467.989 200H466.372Z" fill="white"/>
</svg>
